<svg id="Layer_1" data-name="Layer 1" xmlns="http://www.w3.org/2000/svg" xmlns:xlink="http://www.w3.org/1999/xlink" viewBox="0 0 326.38 299.68"><defs><style>.cls-1,.cls-12{fill:#fff;}.cls-1,.cls-3,.cls-30{fill-rule:evenodd;}.cls-2{mask:url(#mask);}.cls-3{fill:#7e60c8;}.cls-4{fill:#8635ba;}.cls-5{opacity:0.4;}.cls-6,.cls-7,.cls-8,.cls-9{fill:#241352;}.cls-13,.cls-7{opacity:0.1;}.cls-15,.cls-8{opacity:0.07;}.cls-10,.cls-20,.cls-9{opacity:0.05;}.cls-11{fill:#083b84;}.cls-14{fill:#e08b51;}.cls-16{fill:#da4a46;}.cls-17,.cls-28,.cls-29,.cls-31{fill:none;}.cls-17,.cls-28{stroke:#fff;}.cls-17,.cls-28,.cls-31,.cls-32{stroke-linecap:round;}.cls-17,.cls-28,.cls-29{stroke-miterlimit:10;}.cls-17{stroke-width:0.89px;}.cls-18{fill:#e5955a;}.cls-19{fill:#75c441;}.cls-21{fill:#333;}.cls-22{fill:#3a3a3a;}.cls-23{fill:#f7c68f;}.cls-24{fill:#bcbec0;}.cls-25{fill:#414042;}.cls-26{fill:#e6e7e8;}.cls-27{fill:#c5c8c9;}.cls-28{stroke-width:0.84px;}.cls-29{stroke:#e2d3f5;}.cls-30{fill:#e2d3f5;}.cls-31,.cls-32{stroke:#fdfeff;stroke-linejoin:round;stroke-width:1.92px;}.cls-32{fill:#41b1ef;}</style><mask id="mask" x="0" y="0" width="326.38" height="287.92" maskUnits="userSpaceOnUse"><g id="mask-2"><polygon id="path-1" class="cls-1" points="0 0 326.38 0 326.38 287.92 0 287.92 0 0"/></g></mask></defs><g class="cls-2"><path id="Fill-1" class="cls-3" d="M82.92,282.56C42.94,269,8.26,235.22,1.16,193.3s19.13-89.15,60.35-98.24C81,90.76,102,94.6,120.65,87.38c35.12-13.6,47-59.64,79.5-78.84,31.25-18.5,74.11-5.16,97.4,22.84S327.63,98,326.2,134.51c-2.1,53.63-24.71,111.47-73,134.14-40.68,19.11-126.68,24.52-170.3,13.91"/></g><rect class="cls-4" x="28.11" y="189.18" width="60.61" height="60.61" rx="15.33"/><g class="cls-5"><path class="cls-6" d="M156,263s5.36,3.15,14.92,7.47l7.2,3.23c3.46,1.54,3.29,2.73,2.94,4.38a9.81,9.81,0,0,1-.6,1.72c-1.36,3.2-11.44,3.57-14.8,2.82s-14.16-5-14.52-7c-.19-1.14-1.76-6.2-.3-10.4C152,261.83,156,263,156,263Z"/><path class="cls-6" d="M151.17,275.56c.36,2,11.15,6.29,14.52,7s13.44.38,14.8-2.82a10.35,10.35,0,0,0,.55-1.53c-1.57,2-5.37,3.88-14.42,3.26-6.05-1.11-11.26-5-15.89-8C150.92,274.47,151.11,275.21,151.17,275.56Z"/><path class="cls-7" d="M171.71,282.26c-2-.91-9.71-4-12.81-9.21-2.36-4-2-4.06-2-4.06s-2.11-.21-4,4.11c-.24.78-1,1.12-2,1.17.13.59.24,1,.28,1.29.36,2,11.15,6.29,14.52,7a26.21,26.21,0,0,0,6.95.2A6.47,6.47,0,0,0,171.71,282.26Z"/><path class="cls-6" d="M53.72,176.84l1.13,15.46a25.81,25.81,0,0,0,5.31,13.91h0a25.84,25.84,0,0,0,12.71,8.9l41.74,14.45,36.14,47.55a16.59,16.59,0,0,0,11.92-11.36s-29.83-47.37-33.95-49.88l-39.3-27.15-1.84-12Z"/><path class="cls-8" d="M157.5,273.66l-34.89-46.73s-42.16-13.59-52.53-17.1-14.17-24-14.17-24l-1.54-.12.48,6.59a25.81,25.81,0,0,0,5.31,13.91h0a25.84,25.84,0,0,0,12.71,8.9l41.74,14.45,36.14,47.55A16.11,16.11,0,0,0,157.5,273.66Z"/><path class="cls-8" d="M140.8,232.05c2.8,4.16,5.78,8.68,8.61,13,.79,6,1.8,11.5,5,14.05l.38.31,3.95,13.06-.09.09-.36.35c-.17.17-.34.33-.52.48l-.37.33c-.25.21-.51.42-.77.61l-.39.27-.47.32-.4.26-.5.29-.55.29-.45.23-.36.16-.38.17-.33.14-.52.19-.26.09-.29.09-.21.07-.34.09-.12,0-.17,0h-.06l-.07,0-16.59-21.84Z"/><polygon class="cls-8" points="113.67 204.4 89.42 188.72 112.25 204 113.67 204.4"/><polygon class="cls-8" points="85.96 181.7 89.42 188.72 88.13 180.34 85.96 181.7"/><polygon class="cls-6" points="153.33 272.44 148.94 261.51 139.59 263.56 141.44 277.85 152.45 279.56 153.33 272.44"/><path class="cls-6" d="M152.86,269.82a1.2,1.2,0,0,1,1.66,1,9.74,9.74,0,0,0,.83,3.16c3.26,5.52,11.44,8.74,13.51,9.7s3.43,2.81,2.82,4-.57,5.63-21.54-.32c-6.8-1.93-12.26-4.12-12.26-4.12a81.07,81.07,0,0,1,.8-10.43c2.64-.28,4,1.65,6.56,2.72a2.68,2.68,0,0,0,3.81-1.54A7.59,7.59,0,0,1,152.86,269.82Z"/><path class="cls-6" d="M153.74,277.52a11.08,11.08,0,0,0,3-1.87"/><path class="cls-6" d="M156.14,278.52a5.86,5.86,0,0,0,2.11-1.23"/><path class="cls-6" d="M158.29,279.65c1.29-.48,1.53-1,1.53-1"/><path class="cls-6" d="M160.37,280.63a4.19,4.19,0,0,0,1.18-.82"/><path class="cls-6" d="M171.67,287.7c-.09.19-1.66,2.86-16.87-1.18-9.69-2.57-13.56-4.61-16.85-5.68-.06,1.44-.07,2.41-.07,2.41s5.46,2.19,12.26,4.12C171.06,293.3,171.07,288.94,171.67,287.7Z"/><path class="cls-6" d="M94.62,176.25l53.57,14.63c10.71,3.38,10.71,3.38,7.22,49.3-1.16,15.17-2,28-2,28s-.51.64-6.42,3.24c-3.69,1.62-8-2.58-8-2.58l-1.41-57.16L112.25,204,89.42,188.72l-3.46-7Z"/><path class="cls-8" d="M96.58,191.41l45.76,17.25,2.33,63.13c-3-.26-5.74-2.93-5.74-2.93l-1.41-57.16L112.25,204,94.56,192.16Z"/><path class="cls-6" d="M54.28,110l19.11,1c6.62-.4,17.31,3,18.94,17.25.32,2.78-5.68,17.94-5.68,17.94l1.68,13.38s8.11,15.25,8,15.27-7.23,3.71-10.94,9.73c-3.07,5-28.89,6.7-31.86,3.88-.56-.52-6.8-33.76-7.93-36.46-7-3.61-14.24-10.42-14.24-10.42L30,140.47s2.13-14,2.95-15.56C35.53,119.8,42.38,112.46,54.28,110Z"/><path class="cls-9" d="M44.27,151.25l1.38.75c.52,1.24,2.12,8.92,3.75,16.92,1.05-9.7-.18-30.51-.18-30.51l-3.06,10.38Z"/><path class="cls-6" d="M81.77,83.43s7-2.12,5.73-9.61c-1-6.16-5.14-4.13-5.14-4.13s-1.91.08-4.86-2.07c-8.21-6-18.69-4.44-25.09,3.39s1.18,26.22,1.16,30.67C63.41,111.73,81.77,83.43,81.77,83.43Z"/><path class="cls-6" d="M72.92,73.25c8.42,2.08,9.44-3.56,9.44-3.56s4.13-2,5.14,4.13c1.22,7.49-5.73,9.61-5.73,9.61s-2.13,2-5.21,4.8L63.35,82.72S64.5,71.18,72.92,73.25Z"/><path class="cls-6" d="M74.09,82.21c-4.4-2-4-2.4-8-2.6-5-.26-5,16.31-5,16.31l-2.39-.48s-.92-7.51-1-7.42c-3.37-2.84-5.32,3.32-2.47,6.39.8,6.08.6,7.3.6,7.3l-3.65,9.81c-.11,1.4,10.26,9.47,18.14,9.28s5.27-9.79,3-9.79a3.36,3.36,0,0,1-3.15-2.13s0,0,0,0l.1,0c2.34.81,4.33.66,5.54-1.5.7-1.25,4-8.15,4.43-9.38.89-2.58,1.48-14.56,1.48-14.56S80.57,85.17,74.09,82.21Z"/><g class="cls-10"><path class="cls-6" d="M75.51,114.06c-.37-1.7-1.27-3-2.12-3a3.36,3.36,0,0,1-3.15-2.13s0,0,0,0l.1,0-11.58-4.93S63.83,116.28,75.51,114.06Z"/></g><path class="cls-9" d="M79.33,83.89h0s-.59,12-1.48,14.56c-.43,1.23-3.87,9.57-4.57,10.83a3.47,3.47,0,0,0,2.58-1.91c.7-1.25,4-8.15,4.43-9.38.89-2.58,1.48-14.56,1.48-14.56S81.3,84.12,79.33,83.89Z"/><polygon class="cls-6" points="71.2 195.26 100.19 205.88 135.21 182.48 106.06 173.56 71.2 195.26"/><path class="cls-6" d="M87.88,197.59l13,4.73a.91.91,0,0,0,.83-.09l27.46-17.77a.94.94,0,0,0-.28-1.71L113.69,179a.91.91,0,0,0-.75.13L87.68,195.91A1,1,0,0,0,87.88,197.59Z"/><path class="cls-6" d="M100.18,205.88l-29-10.62h0a3.47,3.47,0,0,0,2.22,2.62L99,207.26a3.18,3.18,0,0,0,2.87-.35l32.18-21.73a2.64,2.64,0,0,0,1.13-2.7Z"/><polygon class="cls-6" points="98.42 180.56 104.24 182.89 94.64 189.07 88.88 186.73 98.42 180.56"/><path class="cls-6" d="M96.34,171.33l-1.59,6.39,2.42,5.45s1.76-.44,1-2.58a4.48,4.48,0,0,1-.24-3.28l2.6,2.36a1.2,1.2,0,0,1,.4.83c0,.93.14,2.78.2,3.84a2.07,2.07,0,0,0,.79,1.59,1.49,1.49,0,0,0,1.39.26c.1-.84.1-6,.1-6l.59,5.49a1.48,1.48,0,0,0,1.2,1.3l.76.13.32-3.46.13,0a1.84,1.84,0,0,0,1.59-1.7l.11-1.62.45-.67a1.83,1.83,0,0,0,.31-1.2l-.61-3a2.23,2.23,0,0,0-.78-1.28L102,169.74Z"/><path class="cls-6" d="M100.18,205.88l-.56-.21,11.08-31.8a2.56,2.56,0,0,1,1.42-1.55l29.66-16.22a1.88,1.88,0,0,1,1.59.05l.26.13Z"/><path class="cls-6" d="M100.18,205.88,111.32,175a3.61,3.61,0,0,1,2-2.14l29.75-16.6a.64.64,0,0,1,.86.78l-8.7,25.47Z"/><path class="cls-6" d="M127.09,178.11a5.67,5.67,0,0,1-2.93,4.3c-1.57.82-2.82.22-2.77-1.33a5.68,5.68,0,0,1,2.92-4.3C125.89,176,127.13,176.56,127.09,178.11Z"/><path class="cls-6" d="M31.41,141.58c-2.51,7.57-4.18,24.28-4.25,29.79s16,32.8,16,32.8l5-3.6s-6.63-23.68-7.39-28c-.38-2.22-.77-4.08.05-5.92a73.58,73.58,0,0,0,5.32-17.81S36.42,146.45,31.41,141.58Z"/><path class="cls-6" d="M87.51,133s1.93-1.85,4.82-4.71c1.46,4.59,1.29,7.84,2.52,13.23,1.2,4.28.73,6.75,2.14,11.12,4.41,5.92,5.61,18.48,5.61,18.48s-3.52,5.1-6.11,1.15c-3.56-5.45-8.16-12.66-8.16-12.66L86.65,146.2S88.51,138.26,87.51,133Z"/><path class="cls-9" d="M88.24,145.9s1.49-9,.88-14.49L87.51,133c1,5.29-.86,13.23-.86,13.23l1.68,13.38s4.6,7.21,8.16,12.66c-2.46-5.77-6.57-13-6.57-13Z"/><path class="cls-6" d="M50.63,199.23l2.73,1,3.55.81a.74.74,0,0,1,.42,1.29h0a3.68,3.68,0,0,1-2.22.89l-4.24.25-7.23-6Z"/><path class="cls-6" d="M50.09,200.74l4,5.14c.88,1.45,1.14,6.81,1.14,6.81a.32.32,0,0,1-.36.38h0a2.14,2.14,0,0,1-1.78-1.5l-1-3.32L50.44,206,52,211.51l1,4.93a.23.23,0,0,1-.19.27h0a2,2,0,0,1-2.21-1.26h-.15a2.24,2.24,0,0,1-2.2-1.45l-1.19-3.13-1.32-3.81,1.37,7.44h0A2,2,0,0,1,45,213.42l-1.81-6.61-1.4-2.14,0,0c-1.58-2.42-.65-4,.44-6.64Z"/><path class="cls-6" d="M160.18,273.46a9.77,9.77,0,0,0,4.09-6.16"/><path class="cls-6" d="M163,274.13a10.53,10.53,0,0,0,3.69-5.8"/><path class="cls-6" d="M165.63,274.54c2.29-2.4,2.58-3.16,3.27-5"/><path class="cls-6" d="M168.56,274.33a11.19,11.19,0,0,0,2.29-3.61"/></g><path class="cls-11" d="M151.09,261s5.36,3.14,14.92,7.46c2.09.95,4.71,2.12,7.21,3.23,3.46,1.55,3.28,2.73,2.93,4.38a9.42,9.42,0,0,1-.6,1.73c-1.36,3.19-11.43,3.57-14.8,2.81s-14.16-5-14.51-7c-.2-1.14-1.77-6.2-.3-10.41C147.09,259.84,151.09,261,151.09,261Z"/><path class="cls-12" d="M146.24,273.57c.35,2,11.14,6.28,14.51,7s13.44.38,14.8-2.81a9.46,9.46,0,0,0,.55-1.54c-1.56,2-5.36,3.89-14.41,3.26-6.06-1.1-11.27-5-15.9-8C146,272.48,146.18,273.21,146.24,273.57Z"/><path class="cls-13" d="M166.78,280.26c-2-.91-9.72-4-12.82-9.2-2.36-4-2-4.06-2-4.06s-2.1-.22-4,4.1c-.24.79-1,1.12-2,1.18.13.58.24,1,.29,1.29.35,2,11.14,6.28,14.51,7a25.85,25.85,0,0,0,7,.2A8.38,8.38,0,0,0,166.78,280.26Z"/><path class="cls-14" d="M48.78,174.85l1.13,15.46a25.92,25.92,0,0,0,5.31,13.91h0a26,26,0,0,0,12.71,8.9l41.75,14.45,36.14,47.54a16.56,16.56,0,0,0,11.91-11.35s-29.82-47.37-33.95-49.88l-39.3-27.16-1.84-12Z"/><path class="cls-15" d="M152.56,271.66l-34.89-46.72s-42.16-13.59-52.52-17.11-14.17-24-14.17-24l-1.55-.11.48,6.59a25.92,25.92,0,0,0,5.31,13.91h0a26,26,0,0,0,12.71,8.9l41.75,14.45,36.14,47.54A16,16,0,0,0,152.56,271.66Z"/><path class="cls-15" d="M135.86,230.06c2.8,4.15,5.78,8.67,8.61,13,.79,6,1.81,11.5,5,14l.39.3,3.94,13.06-.08.09-.36.36-.52.48-.37.32c-.26.22-.52.42-.77.61l-.39.28-.48.32-.4.25-.5.29-.55.3-.44.22-.37.17-.38.17-.33.13-.52.2-.26.09-.29.09-.2.06-.35.1-.11,0-.17,0h-.13l-16.6-21.83Z"/><polygon class="cls-15" points="108.73 202.41 84.48 186.72 107.31 202 108.73 202.41"/><polygon class="cls-15" points="81.02 179.71 84.48 186.72 83.19 178.34 81.02 179.71"/><polygon class="cls-16" points="148.39 270.45 144 259.52 134.65 261.56 136.5 275.86 147.51 277.56 148.39 270.45"/><path class="cls-11" d="M147.93,267.83a1.2,1.2,0,0,1,1.66,1,9.6,9.6,0,0,0,.82,3.15c3.27,5.52,11.44,8.75,13.51,9.71s3.43,2.81,2.82,4-.56,5.62-21.54-.33c-6.8-1.93-12.25-4.11-12.25-4.11a81,81,0,0,1,.8-10.43c2.63-.28,4,1.64,6.56,2.71a2.67,2.67,0,0,0,3.8-1.53A7.56,7.56,0,0,1,147.93,267.83Z"/><path class="cls-17" d="M148.8,275.53a11.08,11.08,0,0,0,3-1.87"/><path class="cls-17" d="M151.2,276.53a6.12,6.12,0,0,0,2.12-1.23"/><path class="cls-17" d="M153.36,277.66c1.29-.49,1.52-1,1.52-1"/><path class="cls-17" d="M155.43,278.63a4,4,0,0,0,1.18-.82"/><path class="cls-12" d="M166.74,285.71c-.09.19-1.66,2.85-16.87-1.18-9.7-2.58-13.57-4.62-16.86-5.68,0,1.44-.06,2.41-.06,2.41s5.45,2.18,12.25,4.11C166.12,291.31,166.13,286.94,166.74,285.71Z"/><path class="cls-18" d="M89.68,174.25l53.57,14.63c10.72,3.38,10.72,3.38,7.22,49.31-1.15,15.17-2,28-2,28s-.52.65-6.43,3.25c-3.69,1.62-8-2.58-8-2.58l-1.41-57.16L107.31,202,84.48,186.72l-3.46-7Z"/><path class="cls-15" d="M91.64,189.42l45.76,17.24,2.34,63.13c-3-.25-5.75-2.92-5.75-2.92l-1.41-57.16L107.31,202,89.62,190.16Z"/><path class="cls-19" d="M49.35,108l19.1,1c6.62-.4,17.31,3,18.94,17.25.32,2.78-5.67,17.93-5.67,17.93l1.68,13.39s8.1,15.25,8,15.27-7.23,3.7-11,9.73c-3.07,5-28.89,6.69-31.86,3.88-.55-.53-6.8-33.77-7.92-36.47-7-3.61-14.25-10.42-14.25-10.42l-1.4-1.1s2.14-13.95,2.95-15.57C30.59,117.8,37.45,110.47,49.35,108Z"/><path class="cls-20" d="M39.33,149.25c.46.26.92.52,1.39.75.51,1.24,2.11,8.92,3.74,16.92,1-9.7-.17-30.5-.17-30.5l-3.06,10.37Z"/><path class="cls-21" d="M76.84,81.44s6.94-2.13,5.72-9.62c-1-6.15-5.14-4.13-5.14-4.13s-1.9.09-4.85-2.06c-8.21-6-18.7-4.45-25.1,3.39s1.19,26.21,1.16,30.66C58.47,109.74,76.84,81.44,76.84,81.44Z"/><path class="cls-22" d="M68,71.26c8.42,2.08,9.44-3.57,9.44-3.57s4.13-2,5.14,4.13c1.22,7.49-5.72,9.62-5.72,9.62s-2.14,2-5.22,4.8L58.41,80.73S59.56,69.18,68,71.26Z"/><path class="cls-23" d="M69.16,80.21c-4.4-2-4-2.39-8-2.6-5-.25-5,16.32-5,16.32l-2.39-.49s-.92-7.5-1-7.41c-3.38-2.84-5.32,3.31-2.47,6.38.8,6.09.59,7.31.59,7.31l-3.65,9.8c-.11,1.4,10.26,9.48,18.14,9.29s5.27-9.8,3-9.79a3.38,3.38,0,0,1-3.15-2.13s0,0,0-.06a.31.31,0,0,0,.1,0c2.34.81,4.34.66,5.54-1.5.7-1.26,4-8.16,4.43-9.39.9-2.58,1.49-14.55,1.49-14.55S75.63,83.17,69.16,80.21Z"/><g class="cls-10"><path d="M70.58,112.06c-.38-1.7-1.28-3-2.13-3a3.38,3.38,0,0,1-3.15-2.13s0,0,0-.06a.31.31,0,0,0,.1,0L53.8,101.94S58.89,114.28,70.58,112.06Z"/></g><path class="cls-20" d="M74.4,81.9h0s-.6,12-1.49,14.55c-.43,1.23-3.87,9.58-4.57,10.83a3.46,3.46,0,0,0,2.58-1.9c.7-1.26,4-8.16,4.43-9.39.9-2.58,1.49-14.55,1.49-14.55S76.36,82.12,74.4,81.9Z"/><polygon class="cls-24" points="66.26 193.27 95.25 203.88 130.28 180.49 101.12 171.57 66.26 193.27"/><path class="cls-25" d="M82.94,195.59l13,4.74a1,1,0,0,0,.84-.09l27.46-17.78a.94.94,0,0,0-.29-1.71L108.76,177a1,1,0,0,0-.76.13L82.74,193.92A.94.94,0,0,0,82.94,195.59Z"/><path class="cls-26" d="M95.25,203.88l-29-10.61h0a3.5,3.5,0,0,0,2.23,2.62l25.6,9.37a3.2,3.2,0,0,0,2.88-.35l32.18-21.72a2.68,2.68,0,0,0,1.13-2.7Z"/><polygon class="cls-26" points="93.48 178.56 99.3 180.9 89.71 187.08 83.95 184.73 93.48 178.56"/><path class="cls-23" d="M91.4,169.34l-1.58,6.38,2.42,5.45s1.75-.44,1-2.58a4.39,4.39,0,0,1-.24-3.27l2.6,2.35a1.17,1.17,0,0,1,.39.83c0,.94.14,2.79.2,3.84a2.14,2.14,0,0,0,.79,1.6,1.52,1.52,0,0,0,1.39.26c.1-.85.11-6,.11-6L99,183.7a1.46,1.46,0,0,0,1.21,1.29l.75.14.33-3.47h.13A1.84,1.84,0,0,0,103,180l.11-1.63.45-.67a1.87,1.87,0,0,0,.32-1.19l-.62-3a2.23,2.23,0,0,0-.78-1.29L97,167.75Z"/><path class="cls-12" d="M95.25,203.88l-.57-.2,11.09-31.81a2.52,2.52,0,0,1,1.42-1.54l29.65-16.23a2,2,0,0,1,1.6.05l.25.13Z"/><path class="cls-27" d="M95.25,203.88,106.39,173a3.55,3.55,0,0,1,2-2.14l29.75-16.6a.63.63,0,0,1,.85.78l-8.69,25.47Z"/><path class="cls-12" d="M122.16,176.12a5.68,5.68,0,0,1-2.93,4.29c-1.58.82-2.82.23-2.78-1.32a5.65,5.65,0,0,1,2.93-4.3C121,174,122.2,174.56,122.16,176.12Z"/><path class="cls-23" d="M26.47,139.58c-2.51,7.58-4.18,24.29-4.25,29.8s16,32.8,16,32.8l5-3.6s-6.63-23.68-7.38-28.05c-.39-2.23-.77-4.09,0-5.92a73.45,73.45,0,0,0,5.33-17.82S31.48,144.45,26.47,139.58Z"/><path class="cls-23" d="M82.57,131s1.94-1.84,4.82-4.7c1.46,4.58,1.3,7.83,2.52,13.23,1.2,4.28.74,6.74,2.15,11.12,4.4,5.91,5.6,18.47,5.6,18.47s-3.52,5.11-6.1,1.15C88,164.8,83.4,157.59,83.4,157.59L81.72,144.2S83.57,136.26,82.57,131Z"/><path class="cls-20" d="M83.3,143.9s1.49-9,.89-14.49L82.57,131c1,5.29-.85,13.23-.85,13.23l1.68,13.39s4.6,7.21,8.16,12.65c-2.47-5.77-6.58-13-6.58-13Z"/><path class="cls-23" d="M45.69,197.24l2.73.95L52,199a.75.75,0,0,1,.42,1.3h0a3.65,3.65,0,0,1-2.22.89l-4.23.25-7.23-6Z"/><path class="cls-23" d="M45.15,198.75l4.06,5.13c.87,1.45,1.13,6.82,1.13,6.82a.31.31,0,0,1-.35.37h0a2.15,2.15,0,0,1-1.79-1.49l-1-3.32L45.5,204l1.59,5.55,1,4.93a.23.23,0,0,1-.19.28h0a2,2,0,0,1-2.21-1.27h-.14A2.27,2.27,0,0,1,43.3,212l-1.18-3.14-1.33-3.8,1.37,7.43h0a2,2,0,0,1-2.06-1.08l-1.8-6.61-1.41-2.13,0-.05c-1.57-2.42-.64-4,.44-6.64Z"/><path class="cls-28" d="M155.25,271.46a9.75,9.75,0,0,0,4.08-6.15"/><path class="cls-28" d="M158.08,272.14a10.58,10.58,0,0,0,3.68-5.81"/><path class="cls-28" d="M160.69,272.55c2.3-2.4,2.58-3.16,3.27-5"/><path class="cls-28" d="M163.62,272.33a10.73,10.73,0,0,0,2.29-3.6"/><path class="cls-12" d="M149.34,117.85a3.2,3.2,0,0,0-1.71,1.92l-7.46,0a1.45,1.45,0,0,0-.12-.35,2.7,2.7,0,0,0-.35-.59l4.64-6.7a3.24,3.24,0,1,0-2.05-1.74,2.63,2.63,0,0,0,.35.58l-4.64,6.7a3.23,3.23,0,0,0-2.26.16,3.26,3.26,0,1,0,4.44,4l7.45,0a3.59,3.59,0,0,0,.12.35,3.25,3.25,0,1,0,1.59-4.32Z"/><polygon class="cls-12" points="294.92 81.16 272.23 68.55 311.44 61.14 294.92 81.16"/><polygon class="cls-12" points="295.72 85.39 273.03 72.78 277.62 97.06 316.83 89.66 312.24 65.37 295.72 85.39"/><path class="cls-12" d="M191.31,150.31a10.31,10.31,0,1,0,10.31,10.31A10.32,10.32,0,0,0,191.31,150.31Zm0,18.21a7.9,7.9,0,1,1,7.9-7.9A7.9,7.9,0,0,1,191.31,168.52Z"/><path class="cls-12" d="M205.19,175.89l-8.68-7.64,2.6-3.06,8.72,7.67a1.17,1.17,0,0,1,.11,1.64l-1.08,1.27A1.18,1.18,0,0,1,205.19,175.89Z"/><path class="cls-29" d="M126.35,34.16H113.18a6,6,0,0,0-3.94-1.49h-.12l-1.28,0,.2-1.27a11.23,11.23,0,0,0,.13-1.74A11.09,11.09,0,0,0,87.06,25l-.48,1-1-.55A8.92,8.92,0,0,0,72.44,32l-.2,1.36L71,32.84a5.7,5.7,0,0,0-2.19-.43,5.78,5.78,0,0,0-4.14,1.75H27.33"/><line class="cls-29" x1="48.09" y1="37.26" x2="80.68" y2="37.26"/><line class="cls-29" x1="68.14" y1="41.4" x2="102.92" y2="41.4"/><path class="cls-29" d="M192.63,30h17.81a8,8,0,0,1,5.32-2h.17l1.72,0-.26-1.71A14.32,14.32,0,0,1,217.2,24a15,15,0,0,1,28.54-6.41l.66,1.4,1.35-.75a12.06,12.06,0,0,1,17.76,8.86l.26,1.84,1.73-.7a7.7,7.7,0,0,1,3-.59A7.82,7.82,0,0,1,276.05,30h50.44"/><line class="cls-29" x1="298.43" y1="34.19" x2="254.37" y2="34.19"/><line class="cls-29" x1="271.33" y1="39.78" x2="224.3" y2="39.78"/><path id="Fill-259" class="cls-30" d="M110.68,11.58A22.15,22.15,0,0,0,97.36,25.2,24.5,24.5,0,0,0,99,44.71c6.19,11.23,22.08,14.85,32.12,7.31s12-24.54,3.92-34.37-24.31-10.28-32.85-.91"/><rect class="cls-31" x="281.7" y="170.43" width="12.27" height="21.33" transform="translate(112.22 -110.12) rotate(26.73)"/><polygon class="cls-31" points="288.53 193.38 277.56 187.86 278.54 199.56 288.53 193.38"/><polygon class="cls-31" points="282.78 196.94 278.13 194.59 278.54 199.56 282.78 196.94"/><rect class="cls-31" x="287.17" y="168.77" width="12.27" height="2.96" transform="translate(107.92 -113.73) rotate(26.73)"/><rect class="cls-31" x="288.72" y="165.21" width="12.27" height="3.93" transform="translate(106.7 -114.76) rotate(26.73)"/><line class="cls-32" x1="292.64" y1="171.57" x2="283.04" y2="190.62"/><line class="cls-32" x1="285.72" y1="199.24" x2="313.69" y2="199.24"/><line class="cls-32" x1="274.84" y1="209.5" x2="314.22" y2="209.5"/><line class="cls-32" x1="274.84" y1="220.61" x2="314.22" y2="220.61"/><line class="cls-32" x1="274.84" y1="231.94" x2="292.64" y2="231.94"/><line class="cls-32" x1="297.01" y1="193.35" x2="322.02" y2="193.35"/><path class="cls-12" d="M189.72,213.85a7.57,7.57,0,1,0,1.94,12.65l3.24,1.41,3.73-.15,2.06,2.68h4l1.74,2.49,4-1.46,1.42-3.26-17.55-7.66A7.58,7.58,0,0,0,189.72,213.85Zm-6.24,8.56a2.77,2.77,0,1,1,3.65-1.43A2.77,2.77,0,0,1,183.48,222.41Z"/><path class="cls-12" d="M219.05,82.79l2.38-.1a1.12,1.12,0,0,0,.82-1V78.76H196.6a.88.88,0,1,1,0-1.76h4.76l3.31-1.55h-9.52A1.14,1.14,0,0,0,194,76.58V98.51a1.14,1.14,0,0,0,1.13,1.14h26a1.15,1.15,0,0,0,1.14-1.14V93.44a1.14,1.14,0,0,0-1.14-1.13H217.6a2.81,2.81,0,0,1-2.79-2.9V85.58C214.81,83,217,82.79,219.05,82.79ZM205.39,77h11.38l-2.17-4.35Zm13.35,0h3.51v-.42a1.14,1.14,0,0,0-1.14-1.13h-3.2Zm-1.66-3.31h4a2.87,2.87,0,0,1,2.8,2.89v5.07a2.19,2.19,0,0,1-.21,1.14h.62a2.87,2.87,0,0,1,2.9,2.79v3.83a3,3,0,0,1-2.9,2.9h-.62a2,2,0,0,1,.21,1.13v5.07a2.78,2.78,0,0,1-2.8,2.79h-26a2.86,2.86,0,0,1-2.89-2.79V76.58a3,3,0,0,1,2.89-2.89h13.14l6.41-3a.87.87,0,0,1,1.14.41Zm7.24,10.86H217.6a1,1,0,0,0-1,1v3.83a1.07,1.07,0,0,0,1,1.14h6.72a1.15,1.15,0,0,0,1.14-1.14V85.58A1.06,1.06,0,0,0,224.32,84.55Z"/><circle class="cls-12" cx="219.67" cy="87.55" r="1.34"/><path class="cls-12" d="M254.46,145.34c0-.67-.85-1.2-2.45-1.61a.9.9,0,0,0,.08-.36v-2.76h0c-.13-2.31-9.56-2.37-10.64-2.37s-10.51.06-10.65,2.37h0v0h0v2.71c0,.75,1,1.34,2.41,1.77a.69.69,0,0,0,0,.2h0v0h0v2.71c-1.55.4-2.33.92-2.37,1.58h0v0h0v2.71c0,.53.47,1,1.24,1.34a2,2,0,0,0-.05.24h0v0h0v2.72c0,1.31,3,2.12,6.25,2.5l.07,0h0c.63.08,1.27.13,1.91.17h.06c.81.06,1.61.08,2.35.08s1.54,0,2.35-.08H245c.63,0,1.28-.09,1.91-.17h0l.07,0c3.29-.38,6.24-1.19,6.25-2.5V154h0c0-.48-.44-.88-1.26-1.22a.86.86,0,0,0,.08-.36v-2.58c1.42-.43,2.37-1,2.37-1.76v-2.76Zm-3.2,7.23-.14.12a3.33,3.33,0,0,1-1,.54v-1.88a5.44,5.44,0,0,0,1.18-.54v1.63A.22.22,0,0,1,251.26,152.57Zm-8.83,1.84h-.6v-2h.39l1.19,0v2h-.25Zm-1.72,0h-.61l-.64,0v-2l1.19,0h.4v2h-.34Zm-7.13-.9h0v-1.91c.37.1.77.19,1.19.27v1.93c-.37-.07-.7-.16-1-.24Zm8.32,3.27h.33v2c-.55,0-1.08,0-1.58,0v-2l1.19,0Zm1.5,0,1.19,0v2l-1.58,0v-2h.39Zm3.17-.18v2c-.38,0-.78.08-1.19.1v-2Zm.79-.09c.4,0,.8-.1,1.18-.16v1.94l-1.18.18Zm2-.3c.42-.09.82-.18,1.18-.28v1.91c-.35.1-.74.2-1.18.29Zm-13.42,0v1.92c-.44-.09-.83-.19-1.18-.29v-1.91C235.09,156,235.49,156.12,235.91,156.21Zm.79.14c.38.06.78.12,1.18.16v2l-1.18-.18Zm2,.25,1.19.1v2c-.41,0-.81-.06-1.19-.1Zm-1-2.36h-.2v-2c.39,0,.78.07,1.18.09v2Zm-1-2.07v2c-.42-.06-.81-.12-1.18-.19V152C235.9,152.07,236.29,152.13,236.7,152.17Zm7.76,2.13-.26,0v-2c.4,0,.8-.06,1.18-.09v2l-.75.07Zm1.71-.17v-2c.41,0,.8-.1,1.19-.16v1.93Zm2-2.27c.42-.08.82-.17,1.19-.27v1.91c-.35.1-.75.2-1.19.29Zm-5.39-1.79-.87,0h0v-2l1.19,0h.39v2h-.66Zm-9.21-5.65v-1.9l1.19.27v1.92l-.15,0-.61-.14Zm7.17-1.06H241v2c-.53,0-1.06,0-1.58,0v-2l1.19,0Zm1.51,0,1.19,0v2h-.21l-.81,0h-.56v-2h.39Zm9,.2h0l-.14.11a3.66,3.66,0,0,1-.94.49v-1.88a5.44,5.44,0,0,0,1.18-.54v1.63A.3.3,0,0,1,251.21,143.56Zm-5,1.49v-2l1.19-.17v1.93Zm2-.34v-1.92c.42-.08.82-.17,1.19-.27v1.9C249,144.52,248.58,144.62,248.14,144.71Zm-2.76-1.53v2l-1.18.1v-2Zm-7.89,2v-2l1.18.1v2Zm-.79-2v2a2,2,0,0,0-.24,0l-.15,0-.67-.11-.13,0v-1.94Zm4.24,6.87h-.16l-.73-.06-.16,0h0v-2c.39,0,.79.08,1.19.1v2Zm-2.61-.29-.45-.08v-1.93l1.19.16v1.95l-.71-.1Zm-1.24-2.16v1.93c-.43-.1-.83-.2-1.18-.3v-1.9C236.28,147.35,236.68,147.44,237.09,147.52Zm-2-.51v1.88a2.52,2.52,0,0,1-1.15-.71l0,0v-1.67A5.44,5.44,0,0,0,235.12,147Zm9.47,1.09,1.19,0v2c-.52,0-1.05,0-1.58,0v-2h.39Zm5.1,1.51-.53.09-.32.05-.3,0v-1.94l1.18-.17v1.94ZM247,150l-.45,0v-2l1.18-.09v2l-.69.06Zm4.5-.74-.61.16-.3.06-.1,0v-1.92l1.19-.27v1.9Zm2.15-3.85c0,.27-.65.63-1.73,1h0a26.45,26.45,0,0,1-6.35,1l-.43,0h-2.71l-.43,0a26.54,26.54,0,0,1-6.35-.94h0c-1.07-.33-1.68-.69-1.72-1v0l.09,0,.47.11a24.53,24.53,0,0,0,2.58.41h0c.63.07,1.29.13,2,.17h0c.49,0,1,.05,1.47.06h1.52a30,30,0,0,0,7.38-.91l.25-.08.15,0,.41-.14s0,0,.06,0l.33-.13.09,0,.31-.16.12-.07.14-.08.08-.05C253.15,144.78,253.62,145.2,253.67,145.36ZM241.44,139c6.5,0,9.8,1,9.86,1.61-.05.27-.66.62-1.73,1h0a26.37,26.37,0,0,1-6.35.95h-.42l-.36,0h-2l-.36,0h-.42a26.46,26.46,0,0,1-6.36-.95h0c-1.07-.33-1.68-.68-1.73-1C231.64,140.05,234.93,139,241.44,139Zm-9.87,4.34v-1.64a6.22,6.22,0,0,0,1.18.55v1.89C232,143.88,231.57,143.59,231.57,143.37Zm1.91,5.46a0,0,0,0,1,0,0,6.78,6.78,0,0,0,3.05,1.29l.1,0,.31.07a31.17,31.17,0,0,0,4.47.57h0c.53,0,1.08,0,1.63.06h.73l.84,0q.78,0,1.53-.06h0a30.16,30.16,0,0,0,4.56-.59,7.12,7.12,0,0,1-1.17.46h0a27.7,27.7,0,0,1-6.82,1h-.56l-.75,0-1,0h-.78a26.88,26.88,0,0,1-6.35-1h0c-1.09-.34-1.7-.69-1.73-1S232,149.19,233.48,148.83Zm-1.91,3.61v-1.63a6.22,6.22,0,0,0,1.18.55v1.87l-.22-.08h0C231.9,152.89,231.57,152.64,231.57,152.44Zm1.18,4.35v-1.64a6.34,6.34,0,0,0,1.19.55v1.89C233.17,157.3,232.75,157,232.75,156.79Zm18.55.79v-1.89a5.78,5.78,0,0,0,1.19-.54v1.63C252.49,157,252.07,157.3,251.3,157.58Zm1.18-3.52c0,.26-.64.61-1.73.95h0a26.37,26.37,0,0,1-6.35,1H244l-.36,0h-2l-.35,0h-.43a26.37,26.37,0,0,1-6.35-1h0c-1.05-.32-1.65-.67-1.72-.93l.36.12h0l.33.1.12,0,.19,0a29,29,0,0,0,5.26.75h0c.61,0,1.23.06,1.86.07h1.17c.58,0,1.15,0,1.7-.06h0c.68,0,1.34-.1,2-.17h0c.71-.08,1.37-.18,2-.29l.37-.07.08,0a10.73,10.73,0,0,0,2.87-.93l.11-.06.13-.08.11-.08C252.24,153.71,252.45,154,252.48,154.06Zm0-5.16V147a5.67,5.67,0,0,0,1.18-.54v1.63C253.67,148.32,253.25,148.61,252.49,148.9Z"/></svg>